PathFileType	3	(X/Y/Z)	D:\minhoCalibration\240510\subject2_KPNP\preferred\preferred14.trc
DataRate	CameraRate	NumFrames	NumMarkers	Units	OrigDataRate	OrigDataStartFrame	OrigNumFrames
200.0	200.0	30	10	mm	200.0	368	191	
Frame#	Time	Left_Ankle_Outer1			Left_Ankle_Inner1			Left_Knee_Outer1			Left_Knee_Inner1			Left_Wrist1			Right_Wrist1			Right_Knee_Inner1			Right_Knee_Outer1			Right_Ankle_Inner1			Right_Ankle_Outer1			
		X1	Y1	Z1	X2	Y2	Z2	X3	Y3	Z3	X4	Y4	Z4	X5	Y5	Z5	X6	Y6	Z6	X7	Y7	Z7	X8	Y8	Z8	X9	Y9	Z9	X10	Y10	Z10	
368	1.83	-641.88055	110.26611	-786.80713	-649.59686	118.89433	-732.10199	-434.81281	514.26569	-830.56549	-462.72452	500.40359	-734.0672	-483.12857	981.40778	-905.42975	-636.8064	1114.5198	-621.09039	-608.24756	774.32648	-246.47354	-668.52484	860.12323	-240.16287	-830.58557	685.68286	-596.48364	-901.34637	750.3916	-569.67499
369	1.835	-642.54694	112.01509	-783.74847	-647.84662	120.09653	-730.41327	-433.99796	514.85016	-834.98566	-457.42746	500.25613	-737.00104	-489.89368	980.0968	-907.55579	-630.32324	1119.3505	-618.88477	-586.45807	788.86615	-238.28365	-644.11859	877.43976	-228.75505	-831.65619	700.2323	-572.40118	-898.47449	767.93988	-543.0639
370	1.84	-642.76135	113.82343	-780.80139	-646.43335	123.93992	-724.49414	-434.25027	514.83698	-838.81244	-452.09689	500.31094	-740.48633	-496.46127	978.93042	-909.69141	-623.21075	1123.8337	-616.81458	-564.25183	803.42853	-231.62859	-618.40485	893.9696	-221.29521	-833.41815	714.2973	-547.11993	-895.59613	785.30243	-515.30902
371	1.845	-642.66248	115.69228	-778.31738	-643.91553	124.19875	-724.37695	-434.11938	515.84882	-842.77142	-447.00281	500.52679	-744.29395	-504.27185	976.83917	-910.61627	-616.242	1128.5952	-614.50665	-541.89551	817.75549	-226.49001	-592.36237	910.29999	-215.13301	-835.17639	728.32599	-519.89917	-892.5061	802.35254	-485.91058
372	1.85	-641.7182	117.34969	-776.24115	-641.27777	126.63008	-721.43933	-435.0542	516.61035	-846.45868	-442.15839	500.98682	-748.52484	-511.57825	975.16815	-911.30054	-609.34784	1133.2697	-613.4422	-519.79724	831.75305	-222.68927	-566.31757	926.06677	-211.06973	-836.31488	741.96545	-491.17651	-888.53961	819.10315	-455.8175
373	1.855	-640.4007	118.58984	-774.3244	-638.71936	128.55197	-719.20679	-436.55682	517.88452	-849.48419	-437.91925	501.78284	-752.93231	-519.4361	972.93701	-911.5202	-603.3219	1137.7415	-612.51428	-497.991	845.34369	-220.20152	-540.05939	941.38361	-209.48148	-837.27692	755.00519	-459.68353	-884.05371	835.58563	-424.23328
374	1.86	-639.31921	120.03819	-773.39044	-636.57983	129.21185	-718.76733	-438.83676	519.24182	-852.0329	-434.42633	502.78079	-757.19952	-527.07843	970.73529	-911.01727	-597.2312	1141.9541	-611.76245	-476.85306	858.41754	-218.98752	-514.75537	955.51257	-209.68141	-836.53131	767.82025	-427.32358	-878.18909	851.49432	-392.46722
375	1.865	-638.19427	121.16898	-772.60645	-634.89838	132.14864	-715.40588	-441.57617	520.87024	-854.19061	-432.26205	504.18567	-760.73468	-534.42474	968.70099	-910.37518	-591.32623	1146.0389	-611.25031	-456.33539	870.95142	-219.06886	-490.35974	968.95551	-210.76227	-834.76843	781.67706	-392.12177	-871.06415	867.97223	-357.63235
376	1.87	-637.39465	122.1083	-772.21118	-633.09009	131.17584	-717.96326	-444.62909	522.72034	-855.68695	-430.96768	506.12634	-763.55121	-541.96887	966.20172	-908.8399	-585.1438	1150.0923	-610.65765	-436.74753	882.79895	-220.24033	-467.02084	981.53021	-213.67845	-830.92371	795.21118	-355.4505	-862.30304	883.97144	-322.34708
377	1.875	-636.90326	122.8963	-772.19928	-632.5351	132.55	-716.77545	-447.99597	524.37256	-856.78174	-431.10223	507.95682	-764.93054	-549.31592	963.71106	-906.87103	-580.21497	1153.8167	-610.82391	-418.00275	894.1098	-222.78024	-444.90176	992.86285	-218.06282	-824.62634	808.98914	-317.52295	-851.45471	899.85272	-286.04581
378	1.88	-636.57233	123.34064	-772.00946	-631.39154	133.32707	-717.56396	-452.11462	525.66791	-856.45135	-432.23062	509.74435	-765.00122	-556.38232	961.07111	-904.67914	-575.29724	1157.3663	-610.92853	-400.38898	904.41888	-225.72638	-424.28879	1002.9278	-223.62469	-816.7204	822.55359	-276.35049	-838.54242	915.83441	-248.51303
379	1.885	-636.88208	123.94424	-772.12231	-631.99023	134.73721	-715.61951	-454.85007	527.80634	-856.2049	-434.18292	511.0929	-763.98505	-562.62262	959.12219	-901.82422	-570.64209	1160.7119	-611.14691	-384.5101	913.92389	-229.21581	-405.38004	1011.7501	-230.12753	-805.43646	836.04919	-232.54617	-823.1698	931.99341	-210.03911
380	1.89	-637.26562	124.07074	-771.91827	-632.18823	133.24893	-717.80743	-457.98801	529.20795	-854.94177	-436.48679	512.44788	-762.30475	-568.7171	957.01733	-898.72021	-566.44562	1163.7058	-611.46289	-370.05826	922.34167	-233.24998	-388.4147	1019.323	-237.22864	-790.69861	849.8006	-189.15675	-804.85217	948.30634	-170.95383
381	1.895	-637.65405	124.03333	-771.3775	-632.34277	133.30545	-717.23566	-460.93179	530.33112	-852.92786	-439.4776	513.66571	-759.90558	-574.14221	955.04053	-895.74817	-562.34283	1166.4573	-611.81543	-357.42294	929.7135	-237.54161	-373.83859	1025.715	-244.54405	-772.50818	864.25208	-145.65314	-783.88837	964.22565	-131.45215
382	1.9	-638.23065	123.8084	-770.50806	-632.93512	133.22141	-715.90894	-462.92441	531.55103	-851.15527	-442.88245	514.57227	-756.86774	-578.82825	953.76672	-892.27734	-559.02869	1168.7012	-612.44281	-346.71509	936.09125	-241.78918	-361.48462	1031.0088	-251.54298	-750.99445	879.88391	-101.44537	-759.52313	981.01648	-91.79216
383	1.905	-638.9837	123.52721	-769.22235	-633.88092	133.54825	-713.28296	-464.8075	532.742	-848.74548	-446.54993	515.37402	-753.33411	-583.00018	952.72296	-889.02686	-555.935	1170.8107	-612.98676	-337.92148	941.59137	-245.91022	-351.38132	1035.3593	-257.96738	-725.38684	895.88544	-59.406403	-731.95721	997.50983	-52.161911
384	1.91	-639.77484	123.14256	-767.25116	-634.42609	133.04379	-711.56287	-466.11331	534.03015	-845.97693	-450.46902	516.03998	-749.48962	-586.68591	952.02197	-885.84381	-553.30585	1172.6134	-613.60345	-331.35443	946.22369	-249.54248	-343.66901	1038.8258	-263.5351	-696.3338	911.72235	-18.987989	-700.703	1013.704	-13.893998
385	1.915	-640.75653	123.03519	-764.82019	-634.85352	131.81531	-710.65857	-467.2229	534.75592	-843.23352	-454.39099	516.56476	-745.56531	-589.35309	951.96582	-884.13495	-551.04279	1174.1394	-614.25739	-327.17691	950.17792	-252.65393	-338.15015	1041.4648	-268.13324	-664.0036	928.14368	19.703907	-665.74066	1030.3882	23.009848
386	1.92	-641.97937	123.27862	-762.25616	-635.62854	132.76164	-706.30414	-467.99442	535.05396	-840.44421	-458.13718	516.88568	-741.6991	-591.65692	952.14838	-882.39337	-549.08356	1175.595	-614.93018	-325.48587	953.63715	-254.90495	-334.99835	1043.3398	-271.51605	-628.00922	944.4657	56.411591	-626.42096	1046.8252	57.775196
387	1.925	-642.99347	123.47624	-759.19037	-635.85895	131.57877	-704.85956	-468.76523	535.3158	-837.38483	-461.68039	517.13562	-738.04541	-593.66071	952.38947	-881.31854	-547.33789	1177.1948	-615.34772	-326.61331	956.83899	-256.28171	-334.02878	1044.6113	-273.53781	-589.85889	960.37933	89.995056	-584.52155	1062.759	90.229103
388	1.93	-643.83118	123.53788	-755.77917	-636.31348	132.3474	-700.53204	-469.07404	535.78479	-834.97192	-464.92157	517.42456	-734.66614	-595.40527	952.93091	-879.94006	-545.92828	1178.6575	-615.6969	-330.46649	959.96094	-256.7103	-335.47824	1046.1449	-273.81769	-545.99774	976.33142	119.3241	-538.76605	1078.113	117.89557
389	1.935	-644.78455	124.00844	-752.60638	-636.14661	132.25644	-697.99963	-470.08868	536.06604	-832.20038	-467.84647	517.7146	-731.65234	-596.71643	953.7511	-878.60236	-544.64575	1180.175	-615.94666	-336.62619	962.74005	-256.16867	-340.67877	1048.0957	-271.68063	-501.03497	990.45667	145.21669	-490.34409	1091.7772	140.49498
390	1.94	-645.4751	124.21831	-749.33136	-636.03778	133.0305	-694.23053	-471.41504	536.38354	-830.07056	-470.28006	517.99725	-729.02759	-597.81879	954.57239	-877.45502	-543.52423	1181.748	-616.06989	-345.99887	965.68201	-253.90453	-347.53519	1050.7527	-268.63098	-452.31906	1002.347	164.18028	-440.31415	1102.6891	156.04182
391	1.945	-646.17688	124.64867	-746.40601	-635.87915	133.56464	-691.26343	-473.01855	537.03357	-828.31708	-472.23611	518.3822	-726.90021	-598.56458	955.39026	-876.12695	-542.58771	1183.353	-615.82153	-356.02173	968.95343	-249.32684	-355.70462	1053.9526	-264.94348	-402.29083	1011.6677	176.3519	-391.22589	1110.9091	165.14835
392	1.95	-646.7583	125.27034	-743.89319	-635.86047	133.78683	-688.67438	-475.51593	537.35614	-826.56256	-473.68344	518.83264	-725.31372	-599.13605	956.30017	-874.41479	-541.60669	1185.0594	-615.18774	-365.44565	972.81409	-243.04874	-362.8869	1060.1643	-261.0097	-355.4115	1018.572	178.79605	-345.95615	1114.9268	166.83815
393	1.955	-647.1062	125.65486	-741.63208	-635.7489	133.84961	-686.57886	-477.64902	538.25787	-825.67834	-474.59314	519.29297	-724.23706	-599.30469	957.32172	-872.38623	-540.52722	1186.6793	-614.0119	-372.18237	977.28412	-236.17644	-367.87683	1068.4949	-256.37161	-330.51282	1022.2642	171.1783	-315.64014	1116.9496	159.60722
394	1.96	-647.44537	125.92387	-739.72662	-635.82312	134.33496	-683.9328	-480.96118	538.79669	-824.07697	-475.04965	519.72498	-723.50146	-599.38159	958.31873	-870.0462	-539.32648	1188.215	-612.42273	-370.08691	982.92047	-230.81566	-363.06686	1075.1722	-254.65077	-329.71509	1025.1134	172.33252	-306.28784	1119.2449	157.74377
395	1.965	-647.69159	126.13021	-738.17401	-635.0058	134.3107	-683.25824	-483.85748	539.26392	-823.04547	-474.99048	520.06274	-722.95801	-599.61975	959.07147	-867.55225	-538.2016	1189.4314	-610.78876	-357.61429	988.88379	-232.61397	-350.98898	1079.6311	-256.80197	-338.98886	1026.835	173.26643	-309.1619	1121.9727	162.31902
396	1.97	-647.84741	126.3769	-737.07343	-635.25043	134.4818	-681.71991	-487.41449	539.3598	-821.20233	-474.65198	520.2204	-722.43689	-600.26984	959.50116	-864.69727	-537.1958	1190.38	-609.18091	-347.60437	991.24274	-237.54593	-340.66235	1080.2214	-259.25552	-349.1777	1026.6879	174.33084	-317.23523	1122.317	165.06601
397	1.975	-647.73083	126.53783	-736.25519	-635.48218	134.69067	-680.51166	-489.67572	540.01147	-819.91071	-473.81317	520.4234	-721.8822	-601.02533	959.69519	-862.71539	-536.53021	1190.8751	-607.48022	-341.98199	992.75159	-240.98227	-329.73328	1078.865	-261.32959	-357.03003	1024.9401	173.82292	-326.20657	1120.1843	165.52878
